<svg xmlns="http://www.w3.org/2000/svg" viewBox="0 0 1100 700"><rect width="1100" height="700" rx="20" fill="#e8e2d5"/><path d="M0 140 Q220 60 410 170 T780 130 T1100 120 V700 H0Z" fill="#c4d3bb"/><path d="M0 430 Q240 300 480 420 T820 370 T1100 410 V700 H0Z" fill="#79928a"/><path d="M0 585 Q250 480 500 570 T900 520 T1100 540 V700 H0Z" fill="#31555b"/><rect x="65" y="55" width="970" height="590" rx="12" fill="none" stroke="#2d3733" stroke-width="2"/><text x="95" y="110" font-family="Georgia" font-size="28" font-weight="700" fill="#283732">FIELD NOTES</text><text x="850" y="105" font-family="Arial" font-size="13" fill="#283732">ISSUE NO. 04</text><text x="95" y="245" font-family="Georgia" font-size="76" font-style="italic" fill="#fff8e8">Somewhere</text><text x="95" y="318" font-family="Georgia" font-size="76" font-style="italic" fill="#fff8e8">worth going.</text><line x1="95" y1="370" x2="350" y2="370" stroke="#fff8e8"/><text x="95" y="405" font-family="Arial" font-size="14" fill="#fff8e8">A SLOW WEEKEND IN THE CATSKILLS</text><rect x="790" y="460" width="190" height="120" rx="6" fill="#fff8e8" transform="rotate(-4 790 460)"/><text x="825" y="515" font-family="Georgia" font-size="20" fill="#31555b" transform="rotate(-4 790 460)">42.1958° N</text><text x="825" y="545" font-family="Georgia" font-size="20" fill="#31555b" transform="rotate(-4 790 460)">74.1230° W</text></svg>
