<svg xmlns="http://www.w3.org/2000/svg" viewBox="0 0 1100 700"><rect width="1100" height="700" rx="20" fill="#f7f6f1"/><rect width="1100" height="58" fill="#242421"/><circle cx="30" cy="29" r="7" fill="#ff7252"/><circle cx="54" cy="29" r="7" fill="#d7ff64"/><text x="90" y="36" font-family="Arial" font-size="17" font-weight="700" fill="white">MONUMENT</text><text x="55" y="130" font-family="Arial" font-size="14" fill="#777">GOOD MORNING, OLIVIA</text><text x="55" y="180" font-family="Arial" font-size="35" font-weight="700" fill="#242421">Your financial overview</text><rect x="55" y="225" width="620" height="400" rx="16" fill="white"/><text x="85" y="270" font-family="Arial" font-size="13" fill="#888">TOTAL BALANCE</text><text x="85" y="320" font-family="Arial" font-size="38" font-weight="700" fill="#222">$248,319.40</text><path d="M90 540 C170 520 180 450 260 470 S370 400 440 420 S520 300 640 330" fill="none" stroke="#ff7252" stroke-width="8"/><path d="M90 540 C170 520 180 450 260 470 S370 400 440 420 S520 300 640 330 L640 580 L90 580Z" fill="#ff7252" opacity=".09"/><rect x="705" y="225" width="340" height="188" rx="16" fill="#242421"/><text x="735" y="270" font-family="Arial" font-size="13" fill="#aaa">MONTHLY CASH FLOW</text><text x="735" y="325" font-family="Arial" font-size="34" font-weight="700" fill="white">+$12,840</text><rect x="735" y="360" width="175" height="12" rx="6" fill="#d7ff64"/><rect x="705" y="437" width="340" height="188" rx="16" fill="#e9e8e1"/><circle cx="760" cy="510" r="23" fill="#ff7252"/><text x="800" y="505" font-family="Arial" font-size="13" fill="#777">NEXT MILESTONE</text><text x="800" y="540" font-family="Arial" font-size="20" font-weight="700" fill="#222">Series A runway</text></svg>
